<?xml version="1.0" standalone="no"?>
<!DOCTYPE svg PUBLIC "-//W3C//DTD SVG 20010904//EN"
 "http://www.w3.org/TR/2001/REC-SVG-20010904/DTD/svg10.dtd">
<svg version="1.0" xmlns="http://www.w3.org/2000/svg"
 width="1000.000000pt" height="1000.000000pt" viewBox="0 0 1000.000000 1000.000000"
 preserveAspectRatio="xMidYMid meet">
<metadata>
Created by potrace 1.11, written by Peter Selinger 2001-2013
</metadata>
<g transform="translate(0.000000,1000.000000) scale(0.100000,-0.100000)"
fill="#000000" stroke="none">
<path d="M7247 6764 c-1 -1 -35 -5 -75 -9 -459 -44 -707 -274 -697 -645 3 -95
25 -180 70 -272 31 -62 124 -212 162 -258 37 -47 111 -142 133 -170 40 -53
171 -211 215 -260 22 -24 69 -76 105 -115 98 -106 232 -254 281 -309 24 -27
55 -61 69 -75 165 -171 298 -365 340 -496 12 -37 16 -176 6 -220 -14 -65 -22
-86 -54 -148 -91 -176 -300 -270 -602 -270 -60 0 -189 11 -199 17 -3 2 -24 7
-46 10 -63 10 -259 80 -394 141 -68 30 -126 53 -129 50 -3 -3 -12 -56 -19
-117 -16 -133 -28 -116 132 -193 203 -98 389 -151 610 -173 92 -9 357 -9 420
1 397 58 665 265 764 591 19 62 26 110 35 232 4 57 -10 161 -29 219 -32 94
-132 278 -197 360 -4 6 -29 37 -55 70 -52 67 -189 220 -300 335 -39 41 -80 84
-90 96 -10 12 -66 72 -124 135 -411 440 -480 524 -552 669 -40 81 -42 89 -42
175 0 108 21 158 93 231 98 98 218 134 421 129 200 -6 417 -47 630 -120 41
-14 75 -24 77 -22 1 1 5 54 8 118 l5 116 -52 17 c-253 82 -382 117 -517 140
-78 13 -394 29 -403 20z"/>
<path d="M1639 6689 c-7 -4 -10 -621 -10 -1675 0 -918 0 -1675 1 -1681 0 -10
213 -13 1030 -13 l1030 0 0 110 c0 81 -3 110 -12 111 -7 1 -359 2 -783 3
l-770 1 -1 837 c0 582 3 838 10 841 6 2 347 3 759 2 l747 0 1 42 c0 24 1 57 1
73 0 17 -1 48 -1 70 l-1 40 -758 0 -758 0 0 510 0 510 783 0 784 0 -3 112 -3
113 -1018 0 c-561 0 -1023 -3 -1028 -6z"/>
<path d="M4738 6445 c-2 -2 -32 -5 -68 -9 -120 -12 -436 -92 -465 -118 -14
-13 -14 -218 0 -218 6 0 39 9 72 20 58 19 169 47 223 56 14 3 30 6 37 9 27 9
187 19 298 17 140 -1 224 -21 311 -73 198 -119 291 -392 247 -724 -47 -354
-262 -769 -654 -1260 -26 -33 -102 -130 -168 -215 -67 -85 -127 -162 -134
-170 -10 -12 -120 -154 -159 -205 -11 -14 -116 -146 -133 -167 -8 -9 -21 -28
-30 -42 l-17 -26 936 0 936 0 1 30 c0 17 1 77 1 135 0 58 -1 112 -1 120 -1 13
-86 15 -683 17 -605 3 -680 5 -667 18 8 8 57 67 111 130 112 134 111 133 248
281 58 62 134 145 170 184 112 122 225 247 291 325 35 41 72 84 82 95 78 86
239 321 304 445 41 79 96 222 108 280 15 75 14 275 -1 360 -72 413 -345 635
-854 696 -53 6 -337 13 -342 9z"/>
</g>
</svg>
